<?xml version="1.0" encoding="UTF-8" standalone="no"?>
<!-- Generator: Adobe Illustrator 18.0.0, SVG Export Plug-In . SVG Version: 6.00 Build 0)  -->

<svg
   xmlns:dc="http://purl.org/dc/elements/1.1/"
   xmlns:cc="http://creativecommons.org/ns#"
   xmlns:rdf="http://www.w3.org/1999/02/22-rdf-syntax-ns#"
   xmlns:svg="http://www.w3.org/2000/svg"
   xmlns="http://www.w3.org/2000/svg"
   xmlns:xlink="http://www.w3.org/1999/xlink"
   xmlns:sodipodi="http://sodipodi.sourceforge.net/DTD/sodipodi-0.dtd"
   xmlns:inkscape="http://www.inkscape.org/namespaces/inkscape"
   version="1.1"
   x="0px"
   y="0px"
   viewBox="0 0 1198.8 741.3"
   style="enable-background:new 0 0 1198.8 741.3;"
   xml:space="preserve"
   id="svg2"
   inkscape:version="0.48+devel r9772"
   width="100%"
   height="100%"
   sodipodi:docname="US-Italy-flag-map. copia.svg"><defs
   id="defs39">
	
	

		<defs
   id="defs15">
			<path
   id="SVGID_1_"
   d="m 115.6,9 -0.4,1 3,6.1 1.4,3.2 -2.2,4.4 v 2.8 l 0.8,1.8 -1,2.2 0.6,4 1.2,1.6 -0.2,1.6 -1.8,0.2 -0.8,-2.4 -1.4,-3 -2.2,-1.8 0.4,-2.6 2.8,-0.6 -0.4,-2.2 -0.4,-1.4 -2.6,1.6 -1.6,1.4 v 3 l -2.8,0.2 -4.2,-1.2 -3.6,-1.8 -3.8,-0.8 -5.7,-2.6 -4,-2.4 -3.7,-3.2 -3,-3.6 -2.6,-0.6 -2.8,11.7 2.2,4 v 9.9 l -0.8,3.6 1.8,8.9 3.4,3.4 -5.5,0.8 -0.2,4.6 3.2,1.4 -2,5.1 -3.4,0.4 -0.4,3.6 2.8,3.6 -2.6,3.2 -2.8,8.1 -4,12.5 -4,8.1 -6.3,17.6 -8.1,17 -10.1,15.8 -2.4,3.6 -1,10.7 -1.6,7.5 3.4,4.4 -0.6,1.2 -2,5.9 -0.2,9.3 -6.5,14.8 -3.8,3.2 -0.4,1.4 -2.2,1 -1.8,5.3 -1,4 3.4,5.3 2,5.3 1.4,4.4 -0.4,8.1 -2.2,3.8 -0.8,7.3 -1.2,4.6 2.2,4.9 3.4,5.7 2.8,6.1 1.6,5.1 -0.4,4 -0.4,0.6 v 2.6 l 7.1,7.9 -0.6,3 -0.8,2.8 -0.8,2.4 0.2,10.3 2.6,4.6 2.4,3.2 3.4,0.6 1.2,3.4 -1.4,4.4 -2.6,2 h -1.4 l -1,4.9 0.6,3.6 4,5.5 2,6.7 1.8,5.9 1.6,3.8 4.2,7.3 1.8,3.2 0.6,3.6 2,1.2 v 3 l -1,2.4 -2.2,8.9 -0.6,2.4 3,3.4 5.3,0.6 5.7,2.2 4.8,2.6 h 3.6 l 3.6,3.8 3.2,6.1 1.4,2.8 4.8,2.6 6.1,1 1.8,2.6 0.8,4 -1.8,0.8 0.4,1.2 4,1 3.4,0.2 3.6,5.9 4.8,5.3 1,2.8 3.2,5.3 0.4,4 v 11.7 l 0.6,2.2 12.5,1.8 24.7,3.4 17.4,1.2 1.3,0.9 -3.3,2.7 -0.4,1.8 0.6,1.2 23.6,13.3 15.2,9.5 18.4,10.7 21,12.5 15.4,3 31.4,3.4 2,1 19.3,2.5 1.6,-12.5 20.8,3.2 15.6,2 1.2,0 2.4,0.6 3.2,3.6 1.8,5.5 5.9,2.8 1.6,4 8.9,9.9 1.6,2 6.3,2.6 1.4,2.6 2,1.2 0.6,3.4 4,8.1 v 10.1 l 2.8,5.9 9.3,9.7 6.5,2.6 2.2,2.4 v 0.8 l 4.9,2.8 2.4,0.8 2.2,1.4 3.2,1.2 3,-3 5.5,-7.7 1.2,-4.6 2.8,-4 4.4,-1.8 5.7,-2.2 3.8,2.8 9.3,0.8 8.5,1.4 3.2,2.6 v 1.4 l 3.2,3.8 7.5,6.7 0.2,1.8 2.2,2.4 1,5.3 6.7,15.4 -0.2,2.4 5.3,3.2 4.4,8.3 4.2,5.5 4,1.6 2,2.8 -1.6,5.5 0.8,1.2 1.6,0.8 -0.4,4.2 -0.8,0.8 0.8,2.8 4,2.4 1.6,8.1 2.6,4.8 9.5,4.2 6.5,1.4 5.3,3.8 4,0.8 1.6,-0.6 6.9,1.4 7.1,4.8 3.8,-2.4 1.2,-1.8 -2.2,-3.4 -1.2,-7.7 -2.2,-8.7 -1,-3 1,-5.7 1.4,-4.8 1.6,-5.7 1.8,-6.9 -2.8,-2.4 1.2,-2.4 5.1,-0.4 4.8,-6.9 4.2,-0.8 7.3,-4.4 2.2,-1.8 7.9,-4.2 7.1,-3 6.7,-4 3.4,-2.6 7.1,-6.7 1.6,-1 2.6,-1.8 3.2,-2.4 1.2,-2.4 12.3,-5.7 7.1,-2 0.8,-0.2 5.9,-1.9 10.1,-0.4 12.9,4.4 8.1,1.4 4.6,-1.8 4,1.4 4,1.2 1,-2.6 -4,-1.4 -3.2,0.6 -3.4,-2 c 0,0 0.2,-1.6 1,-1.8 l 0,0 c 0.8,-0.2 3.8,-1.2 3.8,-1.2 l 0,0 2.2,1.8 2.2,-1.2 4,0.8 1.8,3 0.4,2.8 5.7,0.4 2.2,2.2 -1,2 -1.6,1 2,2 10.5,4.4 4.4,-1.6 1.2,-3 3.2,-0.8 2.2,-1.8 1.6,1.2 1,3.6 -2.8,1 0.8,0.8 4.2,-1.6 2.8,-4.2 1,-0.6 -2.6,-0.4 1,-2 -0.2,-1.8 2.6,-0.6 1.4,-1.6 0.8,1 c 0,0 -0.2,3.8 0.8,3.8 l 0,0 c 1,0 5.3,0.8 5.3,0.8 l 0,0 5.1,2.4 1.2,1.8 h 3.6 l 1.4,1.2 2.8,-3.8 v -1.8 h -1.6 l -4.2,-3.4 -7.3,-1 -4,-2.8 1.4,-3.4 2.8,0.4 0.2,-0.8 -2.2,-1.2 v -0.6 h 4 l 2.2,-3.8 -1.6,-2.4 -0.4,-3.4 -1.8,0.2 -2.4,2.6 -0.8,3.2 -3.8,-0.8 -1.2,-2.2 2.2,-2.4 2.5,-2.2 0.9,-0.6 1.4,-1 3.2,-5.3 2.2,1 8.5,-2.4 2.6,0.4 1.8,1 h 6.5 l 0.3,-1.6 1.3,-0.2 h 3.4 l 0.8,0.2 1.6,-3.4 1.8,-5.5 2.8,0.8 3.8,7.5 v 1.2 l -3.4,2.4 3.4,0.4 6.9,-3.2 0.8,0.1 4.3,-0.8 7.5,-2.6 7.5,-0.6 5.5,-0.8 9.5,2.2 10.1,4.8 2,1.8 3.6,1.4 2,2.4 0.4,3.4 4,-1.6 h 4.9 l 4.4,-2.4 4.6,-4.4 3.8,0.2 0.6,-1.4 -1,-1.2 0.2,-2.4 5.1,-1 h 3.2 l 3.6,1.8 5.3,1.8 3,4.6 3.4,1.2 1.4,4.2 4.2,2 2,3.2 2.4,0.8 6.5,1.6 1.6,3.8 3.8,4.6 v 11.9 l -1.8,5.9 0.4,3.4 1.6,6.1 2.2,5.1 1,-0.6 1.8,-5.7 -3.2,-1.2 -0.4,-0.8 2,-0.8 5.7,1.2 0.2,2 -4,6.9 -2.6,3 4.4,4.6 3.2,3.8 3.6,6.7 3.6,4.8 2.6,6.3 2.2,0.4 2,-2.6 2.2,1.4 3.2,5.1 0.8,4.4 3.8,5.5 1,-1.6 4.9,0.4 4.4,2.8 4.2,6.5 1,4.2 0.4,3.6 1.4,1.2 1.6,0.6 3,-1.2 1.8,-2 4.9,-0.2 3.8,-1.8 3.4,-4 -0.6,-2.4 -0.4,-3 0.8,-2.4 -0.4,-2.4 3,-1.6 0.4,-4.2 -0.8,-2.2 -0.6,-15 -1.6,-9.5 -5.7,-10.3 -4.4,-7.3 -3.2,-6.7 -3.6,-3.6 -3.6,-9.3 1,-1.6 1.4,-1.6 -2,-3.6 -5.1,-4.6 -6.1,-6.9 -4.6,-7.9 -6.7,-11.7 -4.7,-12.2 -2.8,-9.1 0,-1.1 -1,-7.9 2.8,-12.5 1.8,-5.3 -0.6,-3.2 4.2,-7.8 -0.6,-1.7 0.7,-1.2 2.6,-1.6 6.3,-6.9 -1.2,-4 3.6,-0.2 4.4,-4.2 2,-1 2.8,-4.2 3.4,-3.4 2.6,-4.4 3,-0.8 1.4,-3.4 2,-1 0.6,-7.9 3.2,-7.7 6.8,-6.8 0.4,-1 6.8,-1.7 5.9,-0.6 0.6,-3 2.4,-8.1 4.2,-5.9 8.1,-6.7 6.5,-3 3.4,-0.8 1.4,0.6 h 1.6 l 3.8,-6.1 2.4,-4.4 -1.6,0.6 -2.8,2.8 -0.8,-2 h -5.3 l 2.4,-7.9 -1,-1.6 h -2.4 v -1.2 l -0.4,-1.6 2,1.6 1.8,0.2 3,0.4 4.6,-2 1.6,-3.6 0.8,-2.6 3.2,-1.6 0.4,-5.3 -1,-0.8 3,-0.2 -0.8,-2.8 -3,-3 -4.4,-8.1 -2.1,-5.9 -1.2,-1.2 -4.5,-7.5 -7.3,2.1 -2,-1.9 3.2,-1.7 -0.6,-3.2 -2.2,-2.2 -0.2,-1.8 -2.9,-1.9 -0.1,-2 3.4,0.1 0.3,-1.7 -1.5,-1 0.6,-2.4 -1.7,-1.4 0.6,-5.9 -1.1,-1.5 -4,-0.5 -2.7,-2.6 -6.1,-1.2 -3.7,-1.2 0.3,-0.8 5.4,-0.1 3.8,1.2 2.6,0.4 1.2,-2.6 -1.8,-2.6 V 325 l -3,-2.6 -2.6,-6.9 1.6,-6.7 -0.2,-2.6 -1.6,-1.6 c 0,0 1.8,-2 1.8,-2.8 l 0,0 c 0,-0.8 0.6,-2.6 0.6,-2.6 l 0,0 2.4,-1.6 2.4,-2 0.6,1.2 -1.8,2 -1.6,4.6 0.4,1.4 2.2,0.4 0.6,6.9 -2.6,1.2 0.4,4.4 0.6,-0.2 1.4,-2.4 2,2.2 -2,1.6 -0.4,4.2 3.2,4.2 4.8,0.6 2,-1 4,5.2 1.7,0.7 0.9,0.4 0.2,2.4 -1,3.9 -2,5.2 -0.6,6.8 1.8,5.8 2.7,-2.4 2.3,-6.2 -0.6,-4.2 0.5,-5.7 3.7,-4.7 1,-4 -0.6,-0.7 2.5,-5 0.3,-6.1 -0.3,-0.9 -2.8,-9.2 -1.2,0.6 -4.4,-3 -2.2,-5.9 -2.4,-4.4 -2.8,-1.2 -2.6,-4.4 0.6,-2.6 0.6,0.6 1.4,2.8 4,3.6 6.1,2.8 5.1,0.8 0.2,1.8 -1,1.2 0.4,3.4 h 1 l 2.6,-3 1,-6.1 3.4,-5.1 3.8,-8.1 1.4,-6.9 -0.8,-1.4 2.6,-10.7 -2,-4.2 -1.4,1 -3.4,0.4 -0.6,-0.6 1.4,-1.2 2.6,-2.4 0.1,-1.4 0.7,-0.1 1.5,0.7 5.1,-1.4 7.3,-2.4 3.2,-1.2 8.9,-6.7 4.8,-3.6 4.2,-4.4 -5.3,-2 -1.6,1.8 -3.6,3.4 -9.9,4.9 -2.8,-0.2 -2,-0.8 -1.4,0.8 -2.8,3.2 -1.8,1.6 -1.6,0.4 -0.4,-1.6 2.4,-2.2 -1,-2.1 1.3,0.3 6.2,-4.3 4.4,-4 2.4,-2.6 1,0.8 3.4,-1.8 6.5,-1.4 8.8,-4.4 1.1,-0.3 3.6,-1.2 3,-2.4 1.4,-2.2 1.6,0.2 3.6,-1.9 0.6,-0.5 2.6,-1.3 -0.6,-2.8 1,-1.8 3.6,-1.8 1,3.8 -0.6,2.2 -3,1.8 v 1.2 l 2.4,-1.8 4.8,-5.7 4.8,-2.4 5.3,-1.8 -0.4,-3 -1.2,-3.6 -2.4,-3 -2.2,-1 -2.6,0.2 -0.6,0.6 1.2,1.6 1.8,-1 2.6,2 1,3.4 -2.2,2.2 -2.8,1.2 -4.4,-0.6 -4.8,-7.5 -2.8,-3.2 h -2.2 l -1.4,1 -2.4,-3.2 0.4,-1.8 3,-6.5 -3.6,-5.5 -0.7,-0.6 1.1,-1.3 1.4,-4.1 0.5,-1.4 1.4,-7.8 0.2,-5.5 1.8,-1.6 -1.2,-4 3.8,-4.4 2,1.8 1.6,-0.6 6.7,-3.8 0.4,-3.6 3.6,-0.6 2,-3.2 -0.2,-2 -0.4,-3.8 1,-1.6 -0.4,-1.4 -1.6,-1.8 2.6,-1.6 2.2,4 1.8,-0.4 0.4,1.6 v 2 l 2.4,0.2 0.6,-3.4 0.6,-0.8 -2,-1.8 1.2,-1.8 3,-1.8 1.2,-1.8 2.2,-0.2 c 0,0 0.4,2.6 1.2,2.6 l 0,0 h 1.6 l 6.1,-6.9 4.2,-3.8 2.4,-0.8 2.6,-5.9 v -2.4 l -2.8,-4.6 -2.4,-2.6 -3.4,0.2 0.6,1.4 -0.2,0.6 h -1 l -3.6,-2.8 -0.2,-6.1 -1,-2.4 h -7.5 l -11.3,-37.4 -2.4,-1.2 -7.5,-3 -1.8,-0.2 -2.2,2.2 -5.1,3.6 v 1.2 l -1,1 -3.4,-0.8 -1.6,-2.8 v -1.4 l -1.6,-0.2 h -1.6 l -2.6,5.3 -3.6,11.1 -2.2,6.1 0.2,6.1 0.2,1.8 -1,3.4 -1,1.2 V 91 l 2.4,3 -1.8,5.1 -3.2,5.9 -1,6.9 v 3.2 l -1.9,-0.5 -1.8,0.1 -1.1,0.6 -1.1,0 -0.8,2 -0.8,-0.6 -1.2,-1.2 -1.8,2.4 -0.1,6.3 -1.2,0.4 -32.8,8.4 -0.8,0.5 -9.5,2.6 -5.7,1.8 -4,-0.2 -6.9,1.6 -3.9,1.6 -3,2.3 -2.6,3 -3.4,4.6 -3.6,5.7 -1.8,3.6 -0.8,1 -7.3,6.9 0.2,3.2 1,1.4 2.2,1 h 2.2 v 1.8 l -1.4,2.6 0.4,1.8 1.8,2.6 -0.2,2.8 -2.4,1.4 h -2.6 l -2,2.4 -2.2,4 -2.6,2.2 -6.5,0.6 -3.2,1.4 -2.6,1.6 -2,-0.2 -2.4,-1.6 -7.9,0.2 -4,0.6 -5.1,1.6 -5.5,1.8 -3.6,2.2 2.4,7.7 2.2,0.2 1.6,3.8 0.2,1.2 -1.4,1.2 -2.6,3.4 -0.6,2 -2.4,2.2 -2.2,1.4 -1.2,2 -1.6,1.4 -1.8,1.4 -1.3,0.6 -6.9,7 -1.6,0.6 -5.3,3.8 -1.3,-0.1 -7.6,5.1 -4.8,2.8 -4.2,4.6 -5.1,4.9 -4,1 -3.6,0.6 -7.1,3.8 -2.6,0.2 -4.2,-3.8 -6.5,0.8 -3.2,-1.8 -3,-1.7 -1.4,-0.4 0.2,-0.7 0.2,-1.8 2.6,-4.6 2.5,-2.2 -0.3,-6.3 2,-2 1.4,-0.4 0.3,-4.4 1.9,-3.8 1.3,0.8 0.2,0.8 1,0.2 2.4,-1.2 -0.4,-11.9 -4,-10.3 -2.8,-11.3 -3,-4 -3.2,-2.2 -2,1.4 -4.8,2.2 -2.4,6.3 -3.4,4.6 -1.8,0.5 -1.8,-0.8 c 0,0 -3.2,-1.8 -3,-2.6 l 0,0 c 0.2,-0.8 0.6,-6.3 0.6,-6.3 l 0,0 4.2,-1.6 1,-4.2 0.8,-3.2 3,-2 -0.4,-12.5 -2,-2.8 -1.6,-1 -1,-2.6 1,-1 2,0.4 0.2,-2 -3,-2.8 -1.6,-3.2 h -3.2 l -5.7,-1.8 -6.9,-4.2 h -3.4 l -0.8,0.8 -1.2,-0.6 -3.8,-2.8 -3.6,2.2 -3.6,2.8 0.4,4.4 1.2,0.4 2.6,0.6 0.6,1 -3.2,1 -3.2,0.4 -1.8,2.2 -0.4,2.6 0.4,2 0.4,6.9 -4.4,2.6 -0.8,-0.2 v -5.3 l 1.6,-3 0.8,-3 -1,-1 -2.4,1 -1.2,5.3 -3.4,1.4 -2.2,2.4 -0.2,1.2 0.8,1 -0.8,3.2 -2.8,0.6 v 1.4 l 1,3 -1.4,7.7 -2,5.1 0.8,5.9 0.6,1.4 -1,3 -0.4,1 -0.4,3.4 4.4,7.5 3.6,8.1 1.8,6.1 -1,5.9 -1.2,7.5 -3,6.5 -0.4,3.4 -4.1,3.9 -1.3,1 -3.5,2 -2.6,2.4 -1.4,0.4 -1.8,-1.2 -3.8,-1.1 -1.1,0.2 -0.3,-1.2 -1,-3.2 -1.6,-4.6 -2,-2.2 -1.8,-3.2 -0.3,-6.9 -0.4,-1.3 0.5,-3.7 -2,-5.7 -0.8,-7.7 -1.4,-3 1.2,-3.8 1,-3.6 1.8,-3.2 -0.8,-4.2 -0.8,-4.4 0.6,-2.2 2.4,-3 0.2,-3.4 -1,-1.6 0.8,-3.2 0.6,-4 3.4,-7.1 3.6,-8.5 0.2,-2.8 -0.4,-1.2 -1,0.6 -5.3,7.9 -3.4,5.1 -2.4,2.2 -1,2.8 -1.8,1 -1.4,2.4 -1.8,-0.4 -0.2,-2.2 1.6,-3 2.6,-5.9 2.2,-2 1.4,-2.9 0.7,-1.1 4,-8.8 1.2,-5.1 2.4,-5.5 1,-0.2 1.4,2 h 0.8 l 5.7,-3 1.8,2 0.6,0.2 1.6,-1.4 1.4,-3.8 3,-1 8.7,-0.8 2.4,-3.2 6.5,-0.2 7.3,1.6 h 2.2 l 4,-1.8 2.8,0.2 2.6,-0.8 4.6,0.6 1,0.4 1.6,-0.4 -1.6,-1.2 -1.6,-0.8 -4,-3.8 v -8.7 l -1.8,-0.6 -1.4,1.4 -7.7,2 -2.4,0.6 -3.6,-1 -0.6,-0.4 v -7.1 l -1.8,-0.2 -3.2,1.6 -5.7,2.4 -8.3,0.4 -4.2,1.4 -5.1,4.4 -2,1.2 h -1.4 l -1.6,1 -2,-0.6 -2,-1.6 -1.8,1.2 -4.9,0.2 -3.4,-3.4 -1.8,-3.8 -1.8,-1.4 -4,-1.2 H 752 l -1.6,-1.6 -4.4,3.6 -1.2,1.4 -1,-0.6 0.4,-3.2 3,-4 0.6,-3 2.8,-1 1.8,-3.8 4.6,-1.2 0.4,-1.2 -1.4,-1.4 -5.9,0.6 -5.5,3 -2.8,2.8 -1.6,2.2 -2.2,1 -2.4,3.6 -0.2,1.6 -5.5,2.6 -3,2.4 -7.5,1.2 -0.8,0.8 v 1.2 l -4.4,2.8 -3.4,1 -0.9,0.7 -1.3,0.5 -0.7,1.6 -1.4,-0.2 -0.8,-1.4 -3.4,-1 -1.4,0.2 -2.2,1.2 -1.2,-0.8 0.8,-2.4 2.4,-3.8 1.4,-1.4 -2.4,-1.8 -2.6,1 -3.6,2.4 -9.3,4 -3.6,0.8 -3.6,-0.6 -1.2,-1.1 -0.5,-0.7 4.8,-3.7 1.6,-0.2 5.7,-6.3 2.2,-1 2.8,-4.8 3,-4.4 3.8,-3.2 6,-2.5 11.6,-5.1 4.9,-2.3 0.8,-2.8 -5.6,0.5 -0.9,1.4 h -0.8 l -2.2,-3.8 -11.1,0.4 -1.2,1 h -1.2 l -0.6,-1.6 -1,-2.2 -3.2,0.6 -4,4 -2,1 H 684 l -3.2,-1.2 v -2.6 l -1.6,-0.2 -0.6,0.6 -3.2,-1.6 -0.6,-3.6 -1.8,0.6 -0.6,1.2 -3,-0.6 -6.7,-3 -4.9,-3.2 h -3.6 l -1.6,-1.2 -2.8,0.8 -1.4,1.4 -0.4,1.6 h -6.1 V 87.4 L 634,87 633.6,85.2 h -6.1 l -2,-2 -1.8,-7.7 -1,-6.9 -2.4,-1 -2.8,-0.6 -0.8,0.2 -0.4,10.3 -37.7,0 -1.4,-0.1 L 541.7,76.7 518.3,75 485.2,73.4 454,71.1 452.4,70.5 414,67 377.4,62.6 340.8,57.5 300.4,50.8 277.4,46.6 236.5,37.9 235.1,37.7 218.9,34.5 218,34 199,29.8 170.3,22.7 145.2,15.6 134.5,13.2 122.4,9.8 117,8 l -1.4,1 0,0 z"
   inkscape:connector-curvature="0" />
		</defs>
		<clipPath
   id="SVGID_2_">
			<use
   xlink:href="#SVGID_1_"
   style="overflow:visible"
   id="use19"
   x="0"
   y="0"
   width="1198.8"
   height="741.29999" />
		</clipPath>
		
	</defs><sodipodi:namedview
   pagecolor="#ffffff"
   bordercolor="#666666"
   borderopacity="1"
   objecttolerance="10"
   gridtolerance="10"
   guidetolerance="10"
   inkscape:pageopacity="0"
   inkscape:pageshadow="2"
   inkscape:window-width="1440"
   inkscape:window-height="851"
   id="namedview37"
   showgrid="false"
   inkscape:zoom="0.43841899"
   inkscape:cx="599.4"
   inkscape:cy="370.65"
   inkscape:window-x="0"
   inkscape:window-y="1"
   inkscape:window-maximized="1"
   inkscape:current-layer="svg2" />
<style
   type="text/css"
   id="style4">
	.st0{filter:url(#filter4374);}
	.st1{opacity:0.3;}
	.st2{clip-path:url(#SVGID_2_);}
	.st3{fill:#E01500;}
	.st4{fill:#FFD400;}
	.st5{fill:none;stroke:#000000;stroke-width:0.5;stroke-miterlimit:10;}
</style>
<filter
   style="color-interpolation-filters:sRGB;"
   id="filter4374">
	<feGaussianBlur
   result="blur"
   id="feGaussianBlur4376"
   stdDeviation="4 4" />
</filter>

<g
   id="g3274"><g
     id="Layer_3">
	<g
   class="st0"
   id="path4246">
		<path
   id="path10"
   d="M1020.5,350.5l0.3-0.8l5.5-0.1l3.9,1.2l2.7,0.4l1.2-2.7l-1.9-2.7v-2.3l-3.1-2.7l-2.7-7l1.6-6.8l-0.2-2.7    l-1.6-1.6c0,0,1.9-2.1,1.9-2.9c0-0.8,0.6-2.7,0.6-2.7l2.5-1.6l2.5-2.1l0.6,1.2l-1.9,2.1l-1.6,4.7l0.4,1.4l2.3,0.4l0.6,7l-2.7,1.2    l0.4,4.5l0.6-0.2l1.4-2.5l2.1,2.3l-2.1,1.6l-0.4,4.3l3.3,4.3l4.9,0.6l2.1-1l4.1,5.3l1.7,0.7l0.9,0.4l0.2,2.5l-1,3.9l-2,5.3    l-0.6,6.9l1.9,5.9l2.8-2.4l2.3-6.3l-0.6-4.3l0.5-5.8l3.7-4.8l1-4.1l-0.6-0.7l2.6-5.1l0.3-6.2l-0.3-0.9l-2.9-9.4l-1.2,0.6l-4.5-3.1    l-2.3-6l-2.5-4.5l-2.9-1.2l-2.7-4.5l0.6-2.7l0.7,0.6l1.4,2.9l4.1,3.7l6.2,2.9l5.2,0.8l0.2,1.9l-1,1.2l0.4,3.5h1l2.7-3.1l1-6.2    l3.5-5.2l3.9-8.2l1.4-7l-0.8-1.4l-0.2-12l-2.1-4.3l-1.4,1l-3.5,0.4l-0.6-0.6l1.4-1.2l2.7-2.5l0.1-1.4l0.7-0.1l1.5,0.7l5.2-1.4    l7.4-2.5l3.3-1.2l9.1-6.8l4.9-3.7l4.3-4.5l-5.4-2.1l-1.6,1.9l-3.7,3.5l-10.1,4.9l-2.9-0.2l-2.1-0.8l-1.4,0.8l-2.9,3.3l-1.9,1.6    l-1.6,0.4l-0.4-1.6l2.5-2.3l-1-2.1l1.3,0.3l6.3-4.3l4.5-4.1l2.5-2.7l1,0.8l3.5-1.9l6.6-1.4l9-4.5l1.1-0.3l3.7-1.2l3.1-2.5l1.4-2.3    l1.6,0.2l3.7-2l0.7-0.5l2.6-1.3l-0.6-2.9l1-1.9l3.7-1.9l1,3.9l-0.6,2.3l-3.1,1.9v1.2l2.5-1.9l4.9-5.8l4.9-2.5l5.4-1.9l-0.4-3.1    l-1.2-3.7l-2.5-3.1l-2.3-1l-2.7,0.2l-0.6,0.6l1.2,1.6l1.9-1l2.7,2.1l1,3.5l-2.3,2.3l-2.9,1.2l-4.5-0.6l-4.9-7.6l-2.9-3.3h-2.3    l-1.4,1l-2.5-3.3l0.4-1.9l3.1-6.6l-3.7-5.6l-0.7-0.6l1.1-1.4l1.4-4.2l0.5-1.4l1.4-8l0.2-5.6l1.9-1.6l-1.2-4.1l3.9-4.5l2.1,1.9    l1.6-0.6l6.8-3.9l0.4-3.7l3.7-0.6l2.1-3.3l-0.2-2.1l-0.4-3.9l1-1.6l-0.4-1.4l-1.6-1.9l2.7-1.6l2.3,4.1l1.9-0.4l0.4,1.6v2.1    l2.5,0.2l0.6-3.5l0.6-0.8l-2.1-1.9l1.2-1.9l3.1-1.9l1.2-1.9l2.3-0.2c0,0,0.4,2.7,1.2,2.7h1.6l6.2-7l4.3-3.9l2.5-0.8l2.7-6v-2.5    l-2.9-4.7l-2.5-2.7l-3.5,0.2l0.6,1.4l-0.2,0.6h-1l-3.7-2.9l-0.2-6.2l-1-2.5h-7.6l-11.5-38.1l-2.5-1.2l-7.6-3.1l-1.9-0.2l-2.3,2.3    l-5.2,3.7v1.2l-1,1l-3.5-0.8l-1.6-2.9V61l-1.6-0.2h-1.6l-2.7,5.4l-3.7,11.3l-2.3,6.2l0.2,6.2l0.2,1.9l-1,3.5l-1,1.2v7.6l2.5,3.1    l-1.9,5.2l-3.3,6l-1,7v3.3l-1.9-0.5l-1.8,0.2l-1.1,0.6l-1.1,0l-0.8,2.1l-0.8-0.6l-1.2-1.2l-1.9,2.5l-0.1,6.4l-1.2,0.4l-33.5,8.6    l-0.8,0.5l-9.6,2.6l-5.8,1.9l-4.1-0.2l-7,1.6l-3.9,1.6l-3.1,2.3l-2.7,3.1l-3.5,4.7l-3.7,5.8l-1.9,3.7l-0.8,1l-7.4,7l0.2,3.3l1,1.4    l2.3,1h2.3v1.9l-1.4,2.7l0.4,1.9l1.9,2.7l-0.2,2.9l-2.5,1.4h-2.7l-2.1,2.5l-2.3,4.1l-2.7,2.3l-6.6,0.6l-3.3,1.4l-2.7,1.6l-2.1-0.2    l-2.5-1.6l-8,0.2l-4.1,0.6l-5.2,1.6l-5.6,1.9l-3.7,2.3l2.5,7.8l2.3,0.2l1.6,3.9l0.2,1.2l-1.4,1.2l-2.7,3.5l-0.6,2.1l-2.5,2.3    l-2.3,1.4l-1.2,2.1l-1.6,1.4l-1.8,1.4l-1.3,0.7l-7,7.2l-1.6,0.6l-5.4,3.8l-1.3-0.1l-7.8,5.2l-4.9,2.9l-4.3,4.7l-5.2,4.9l-4.1,1    l-3.7,0.6l-7,3.3l-2.7,0.2l-4.3-3.9l-6.6,0.8l-3.3-1.9l-3-1.7l-1.5-0.4l0.2-0.7l0.2-1.9l2.7-4.7l2.5-2.2l-0.3-6.4l2-2l1.4-0.4    l0.3-4.5l2-3.9l1.3,0.8l0.2,0.8l1,0.2l2.5-1.2l-0.4-12.2l-4.1-10.5l-2.9-11.5l-3.1-4.1l-3.3-2.3l-2.1,1.4l-4.9,2.3l-2.5,6.4    l-3.5,4.7l-1.4,0.8l-1.9-0.8c0,0-3.3-1.9-3.1-2.7c0.2-0.8,0.6-6.4,0.6-6.4l4.3-1.6l1-4.3l0.8-3.3l3.1-2.1l-0.4-12.8l-2.1-2.9    l-1.6-1l-1-2.7l1-1l2.1,0.4l0.2-2.1l-3.1-2.9l-1.6-3.3h-3.3l-5.8-1.9l-7-4.3h-3.5l-0.8,0.8l-1.2-0.6l-3.9-2.9l-3.7,2.3l-3.7,2.9    l0.4,4.5l1.2,0.4l2.7,0.6l0.6,1l-3.3,1l-3.3,0.4l-1.9,2.3l-0.4,2.7l0.4,2.1l0.4,7l-4.5,2.7l-0.8-0.2v-5.4l1.6-3.1l0.8-3.1l-1-1    l-2.5,1l-1.2,5.4l-3.5,1.4l-2.3,2.5l-0.2,1.2l0.8,1l-0.8,3.3l-2.9,0.6v1.4l1,3.1l-1.4,7.8l-2.1,5.2l0.8,6l0.6,1.4l-1,3.1l-0.4,1    l-0.4,3.5l4.5,7.6l3.7,8.2l1.9,6.2l-1,6l-1.2,7.6l-3.1,6.6L803,278l-4.2,3.9l-1.3,1L794,285l-2.7,2.5l-1.4,0.4l-1.9-1.2l-3.9-1.1    l-1.1,0.2l-0.3-1.2l-1-3.3l-1.6-4.7l-2.1-2.3L776,271l-0.3-7l-0.4-1.4l0.5-3.8l-2.1-5.8l-0.8-7.8l-1.4-3.1l1.2-3.9l1-3.7l1.9-3.3    l-0.8-4.3l-0.8-4.5l0.6-2.3l2.5-3.1l0.2-3.5l-1-1.6l0.8-3.3l0.6-4.1l3.5-7.2l3.7-8.7l0.2-2.9l-0.4-1.2l-1,0.6l-5.4,8l-3.5,5.2    l-2.5,2.3l-1,2.9l-1.9,1l-1.4,2.5l-1.9-0.4l-0.2-2.3l1.6-3.1l2.7-6l2.3-2.1l1.4-2.9l0.7-1.1l4.1-8.9l1.2-5.2l2.5-5.6l1-0.2    l1.4,2.1h0.8l5.8-3.1l1.9,2.1l0.6,0.2l1.6-1.4l1.4-3.9l3.1-1l8.9-0.8l2.5-3.3l6.6-0.2l7.4,1.6h2.3l4.1-1.9l2.9,0.2l2.7-0.8    l4.7,0.6l1,0.4l1.6-0.4l-1.6-1.2l-1.6-0.8l-4.1-3.9v-8.9l-1.9-0.6l-1.4,1.4l-7.8,2.1l-2.5,0.6l-3.7-1l-0.6-0.4v-7.2l-1.9-0.2    l-3.3,1.6l-5.8,2.5l-8.5,0.4l-4.3,1.4l-5.2,4.5l-2.1,1.2h-1.4l-1.6,1l-2.1-0.6l-2.1-1.6l-1.9,1.2l-4.9,0.2l-3.5-3.5l-1.9-3.9    l-1.9-1.4l-4.1-1.2h-2.9l-1.6-1.6l-4.5,3.7l-1.2,1.4l-1-0.6l0.4-3.3l3.1-4.1l0.6-3.1l2.9-1l1.9-3.9l4.7-1.2l0.4-1.2l-1.4-1.4    l-6,0.6l-5.6,3.1l-2.9,2.9l-1.6,2.3l-2.3,1l-2.5,3.7l-0.2,1.6l-5.6,2.7l-3.1,2.5l-7.6,1.2l-0.8,0.8v1.2l-4.5,2.9l-3.5,1l-0.9,0.7    l-1.3,0.5l-0.7,1.6L714,155l-0.8-1.4l-3.5-1l-1.4,0.2l-2.3,1.2l-1.2-0.8l0.8-2.5l2.5-3.9l1.4-1.4l-2.5-1.9l-2.7,1l-3.7,2.5    l-9.5,4.1l-3.7,0.8l-3.7-0.6l-1.3-1.1l-0.6-0.7l4.9-3.7l1.6-0.2l5.8-6.4l2.3-1l2.9-4.9l3.1-4.5l3.9-3.3l6.1-2.6l11.8-5.2l5-2.3    l0.8-2.9l-5.7,0.5l-0.9,1.4h-0.8l-2.3-3.9l-11.3,0.4l-1.2,1h-1.2l-0.6-1.6l-1-2.3l-3.3,0.6l-4.1,4.1l-2.1,1h-3.9l-3.3-1.2v-2.7    l-1.6-0.2L686,110l-3.3-1.6l-0.6-3.7l-1.9,0.6l-0.6,1.2l-3.1-0.6l-6.8-3.1l-4.9-3.3H661l-1.6-1.2l-2.9,0.8l-1.4,1.4l-0.4,1.6h-6.2    v-2.7l-8-0.4l-0.4-1.9h-6.2l-2.1-2.1l-1.9-7.8l-1-7l-2.5-1l-2.9-0.6l-0.8,0.2l-0.4,10.5l-38.4,0l-1.4-0.1l-36.2-0.7l-23.7-0.8    l-33.8-1.6l-31.8-2.4l-1.6-0.6l-39.1-3.6L378.8,75l-37.3-5.2L300.3,63l-23.5-4.3l-41.7-8.8l-1.4-0.2l-16.6-3.2l-0.9-0.5l-19.3-4.3    l-29.3-7.2L142,27.2l-10.9-2.5l-12.4-3.5l-5.6-1.9l-1.4,1l-0.4,1l3.1,6.2l1.4,3.3l-2.3,4.5v2.9l0.8,1.9l-1,2.3l0.6,4.1l1.2,1.6    l-0.2,1.6l-1.9,0.2l-0.8-2.5l-1.4-3.1l-2.3-1.9l0.4-2.7l2.9-0.6l-0.4-2.3l-0.4-1.4l-2.7,1.6l-1.6,1.4v3.1l-2.9,0.2l-4.3-1.2    l-3.7-1.9l-3.9-0.8l-5.8-2.7L82,32.9l-3.5-3.3l-3.1-3.7l-2.7-0.6l-2.9,12l2.3,4.1v10.1l-0.8,3.7l1.9,9.1l3.5,3.5l-5.6,0.8    l-0.2,4.7l3.3,1.4l-2.1,5.2l-3.5,0.4l-0.4,3.7l2.9,3.7l-2.7,3.3l-2.9,8.2l-4.1,12.8l-4.1,8.2l-6.4,17.9l-8.2,17.3l-10.3,16.1    l-2.5,3.7l-1,10.9l-1.6,7.6l3.5,4.5l-0.6,1.2l-2,6l-0.2,9.5l-6.6,15l-3.9,3.3l-0.4,1.4l-2.3,1l-1.9,5.4l-1,4.1l3.5,5.4l2.1,5.4    l1.4,4.5l-0.4,8.2l-2.3,3.9l-0.8,7.4L14,285l2.3,4.9l3.5,5.8l2.9,6.2l1.6,5.2l-0.4,4.1l-0.4,0.6v2.7l7.2,8l-0.6,3.1l-0.8,2.9    l-0.8,2.5l0.2,10.5l2.7,4.7l2.5,3.3l3.5,0.6l1.2,3.5l-1.4,4.5l-2.7,2.1H33l-1,4.9l0.6,3.7l4.1,5.6l2.1,6.8l1.9,6l1.6,3.9l4.3,7.4    l1.9,3.3l0.6,3.7l2.1,1.2v3.1l-1,2.5l-2.3,9.1l-0.6,2.5l3.1,3.5l5.4,0.6l5.8,2.3l4.9,2.7h3.7l3.7,3.9l3.3,6.2l1.4,2.9l4.9,2.7    l6.2,1l1.9,2.7l0.8,4.1l-1.9,0.8l0.4,1.2l4.1,1l3.5,0.2l3.7,6l4.9,5.4l1,2.9l3.3,5.4l0.4,4.1v12l0.6,2.3l12.8,1.9l25.1,3.5    l17.7,1.2l1.3,1l-3.3,2.8l-0.4,1.9l0.6,1.2l24.1,13.6l15.5,9.7l18.8,10.9l21.4,12.8l15.7,3.1l32,3.4l2,1l19.7,2.5l1.6-12.8    l21.2,3.3l15.9,2.1l1.2,0l2.5,0.6l3.3,3.7l1.9,5.6l6,2.9l1.6,4.1l9.1,10.1l1.6,2.1l6.4,2.7l1.4,2.7l2.1,1.2l0.6,3.5l4.1,8.2v10.3    l2.9,6l9.5,9.9l6.6,2.7l2.3,2.5v0.8l4.9,2.9l2.5,0.8l2.3,1.4l3.3,1.2l3.1-3.1l5.6-7.8l1.2-4.7l2.9-4.1l4.5-1.9l5.8-2.3l3.9,2.9    l9.5,0.8l8.7,1.4l3.3,2.7v1.4l3.3,3.9l7.6,6.8l0.2,1.9l2.3,2.5l1,5.4l6.8,15.7l-0.2,2.5l5.4,3.3l4.5,8.5l4.3,5.6l4.1,1.6l2.1,2.9    l-1.6,5.6l0.8,1.2l1.6,0.8l-0.4,4.3l-0.8,0.8l0.8,2.9l4.1,2.5l1.6,8.2l2.7,4.9l9.7,4.3l6.6,1.4l5.4,3.9l4.1,0.8l1.6-0.6l7,1.4    l7.2,4.9l3.9-2.5l1.2-1.9l-2.3-3.5l-1.2-7.8l-2.3-8.9l-1-3.1l1-5.8l1.4-4.9l1.6-5.8l1.9-7l-2.9-2.5l1.2-2.5l5.2-0.4l4.9-7l4.3-0.8    l7.4-4.5l2.3-1.9l8-4.3l7.2-3.1l6.8-4.1l3.5-2.7l7.2-6.8l1.6-1l2.7-1.9l3.3-2.5l1.2-2.5l12.6-5.8l7.2-2l0.8-0.2l6-1.9l10.3-0.4    l13.2,4.5l8.2,1.4l4.7-1.9l4.1,1.4l4.1,1.2l1-2.7l-4.1-1.4l-3.3,0.6l-3.5-2.1c0,0,0.2-1.6,1-1.9c0.8-0.2,3.9-1.2,3.9-1.2l2.3,1.9    l2.3-1.2l4.1,0.8l1.9,3.1l0.4,2.9l5.8,0.4l2.3,2.3l-1,2.1l-1.6,1l2.1,2.1l10.7,4.5l4.5-1.6l1.2-3.1l3.3-0.8l2.3-1.9l1.6,1.2l1,3.7    l-2.9,1l0.8,0.8l4.3-1.6l2.9-4.3l1-0.6l-2.7-0.4l1-2.1l-0.2-1.9l2.7-0.6l1.4-1.6l0.8,1c0,0-0.2,3.9,0.8,3.9c1,0,5.4,0.8,5.4,0.8    l5.2,2.5l1.2,1.9h3.7l1.4,1.2l2.9-3.9V640h-1.6l-4.3-3.5l-7.4-1l-4.1-2.9l1.4-3.5l2.9,0.4l0.2-0.8l-2.3-1.2v-0.6h4.1l2.3-3.9    l-1.6-2.5l-0.4-3.5l-1.9,0.2l-2.5,2.7l-0.8,3.3l-3.9-0.8l-1.2-2.3l2.3-2.5l2.6-2.3l1-0.7l1.4-1l3.3-5.4l2.3,1l8.7-2.5l2.7,0.4    l1.9,1h6.6l0.3-1.6l1.3-0.3h3.5l0.8,0.2l1.6-3.5l1.9-5.6l2.9,0.8l3.9,7.6v1.2l-3.5,2.5l3.5,0.4l7.1-3.3l0.9,0.1l4.4-0.8l7.6-2.7    l7.6-0.6l5.6-0.8l9.7,2.3l10.3,4.9l2.1,1.9l3.7,1.4l2.1,2.5l0.4,3.5l4.1-1.6h4.9l4.5-2.5l4.7-4.5l3.9,0.2l0.6-1.4l-1-1.2l0.2-2.5    l5.2-1h3.3l3.7,1.9l5.4,1.9l3.1,4.7l3.5,1.2l1.4,4.3l4.3,2.1l2.1,3.3l2.5,0.8l6.6,1.6l1.6,3.9l3.9,4.7v12.2l-1.9,6l0.4,3.5    l1.6,6.2l2.3,5.2l1-0.6l1.9-5.8l-3.3-1.2l-0.4-0.8l2.1-0.8l5.8,1.2l0.2,2.1l-4.1,7l-2.7,3.1l4.5,4.7l3.3,3.9l3.7,6.8l3.7,4.9    l2.7,6.4l2.3,0.4l2.1-2.7l2.3,1.4l3.3,5.2l0.8,4.5l3.9,5.6l1-1.6l4.9,0.4l4.5,2.9l4.3,6.6l1,4.3l0.4,3.7l1.4,1.2l1.6,0.6l3.1-1.2    l1.9-2.1l4.9-0.2l3.9-1.9l3.5-4.1l-0.6-2.5l-0.4-3.1l0.8-2.5l-0.4-2.5l3.1-1.6l0.4-4.3l-0.8-2.3l-0.6-15.3l-1.6-9.7l-5.8-10.5    l-4.5-7.4l-3.3-6.8l-3.7-3.7l-3.7-9.5l1-1.6l1.4-1.6l-2.1-3.7l-5.2-4.7l-6.2-7l-4.7-8l-6.8-12l-4.8-12.4l-2.9-9.3l0-1.1l-1-8    l2.9-12.8l1.9-5.4l-0.6-3.3l4.3-8l-0.7-1.7l0.7-1.2l2.7-1.6l6.4-7l-1.2-4.1l3.7-0.2l4.5-4.3l2.1-1l2.9-4.3l3.5-3.5l2.7-4.5    l3.1-0.8l1.4-3.5l2.1-1l0.6-8l3.3-7.8l6.9-7l0.4-1l7-1.7l6-0.6l0.6-3.1l2.5-8.2l4.3-6l8.2-6.8l6.6-3.1l3.5-0.8l1.4,0.6h1.6    l3.9-6.2l2.5-4.5l-1.6,0.6l-2.9,2.9l-0.8-2.1h-5.4l2.5-8l-1-1.6h-2.5v-1.2l-0.4-1.6l2.1,1.6l1.9,0.2l3.1,0.4l4.7-2.1l1.6-3.7    l0.8-2.7l3.3-1.6l0.4-5.4l-1-0.8l3.1-0.2l-0.8-2.9l-3.1-3.1l-4.5-8.2l-2.2-6l-1.2-1.2l-4.6-7.7l-7.4,2.1l-2-1.9l3.3-1.8l-0.6-3.2    l-2.3-2.3l-0.2-1.8l-2.9-2l-0.1-2.1l3.4,0.1l0.3-1.8l-1.6-1l0.6-2.5l-1.8-1.4l0.6-6l-1.1-1.5l-4.1-0.5l-2.7-2.7l-6.2-1.2    L1020.5,350.5z"
   class="st1" />
	</g>
</g><path
     transform="translate(-3.4284419e-5,0)"
     id="path3272"
     d="M 725.34375 132.0625 L 719.5 133 L 718.6875 133.8125 L 718.6875 135 L 714.3125 137.8125 L 710.90625 138.8125 L 710 139.5 L 708.6875 140 L 708 141.59375 L 706.59375 141.40625 L 705.8125 140 L 702.40625 139 L 701 139.1875 L 698.8125 140.40625 L 697.59375 139.59375 L 698.40625 137.1875 L 700.8125 133.40625 L 702.1875 132 L 699.8125 130.1875 L 697.1875 131.1875 L 693.59375 133.59375 L 684.3125 137.59375 L 680.6875 138.40625 L 677.09375 137.8125 L 675.90625 136.6875 L 675.40625 136 L 680.1875 132.3125 L 681.8125 132.09375 L 687.5 125.8125 L 689.6875 124.8125 L 692.5 119.90625 L 695.5 115.5 L 699.3125 112.3125 L 705.3125 109.8125 L 716.90625 104.6875 L 721.8125 102.40625 L 722.59375 99.59375 L 717.09375 100.09375 L 716.1875 101.5 L 715.40625 101.5 L 713.1875 97.6875 L 702.09375 98.09375 L 700.90625 99.09375 L 699.6875 99.09375 L 699.09375 97.5 L 698.09375 95.3125 L 694.90625 95.90625 L 690.90625 99.90625 L 688.90625 100.90625 L 684 100.90625 L 680.8125 99.6875 L 680.8125 97.09375 L 679.1875 96.90625 L 678.59375 97.5 L 675.40625 95.90625 L 674.8125 92.3125 L 673 92.90625 L 672.40625 94.09375 L 669.40625 93.5 L 662.6875 90.5 L 657.90625 87.3125 L 654.3125 87.3125 L 652.6875 86.09375 L 649.90625 86.90625 L 648.5 88.3125 L 648.09375 89.90625 L 642 89.90625 L 642 87.3125 L 634.09375 86.90625 L 633.6875 85.09375 L 627.59375 85.09375 L 625.59375 83.09375 L 623.8125 75.40625 L 622.8125 68.5 L 620.40625 67.5 L 617.59375 66.90625 L 616.8125 67.09375 L 616.40625 77.40625 L 578.6875 77.40625 L 577.3125 77.3125 L 541.8125 76.59375 L 518.3125 75 L 485.1875 73.40625 L 454 71.09375 L 452.40625 70.5 L 414 67 L 377.40625 62.59375 L 358.09375 59.90625 L 358.09375 539.9375 L 360.09375 542.1875 L 361.90625 547.6875 L 367.8125 550.5 L 369.40625 554.5 L 378.3125 564.40625 L 379.90625 566.40625 L 386.1875 569 L 387.59375 571.59375 L 389.59375 572.8125 L 390.1875 576.1875 L 394.1875 584.3125 L 394.1875 594.40625 L 397 600.3125 L 406.3125 610 L 412.8125 612.59375 L 415 615 L 415 615.8125 L 419.90625 618.59375 L 422.3125 619.40625 L 424.5 620.8125 L 427.6875 622 L 430.6875 619 L 436.1875 611.3125 L 437.40625 606.6875 L 440.1875 602.6875 L 444.59375 600.90625 L 450.3125 598.6875 L 454.09375 601.5 L 463.40625 602.3125 L 471.90625 603.6875 L 475.09375 606.3125 L 475.09375 607.6875 L 478.3125 611.5 L 485.8125 618.1875 L 486 620 L 488.1875 622.40625 L 489.1875 627.6875 L 495.90625 643.09375 L 495.6875 645.5 L 501 648.6875 L 505.40625 657 L 509.59375 662.5 L 513.59375 664.09375 L 515.59375 666.90625 L 514 672.40625 L 514.8125 673.59375 L 516.40625 674.40625 L 516 678.59375 L 515.1875 679.40625 L 516 682.1875 L 520 684.59375 L 521.59375 692.6875 L 524.1875 697.59375 L 533.6875 701.8125 L 540.1875 703.1875 L 545.5 707 L 549.5 707.8125 L 551.09375 707.1875 L 558 708.59375 L 565.09375 713.40625 L 568.90625 711 L 570.09375 709.1875 L 567.90625 705.8125 L 566.6875 698.09375 L 564.5 689.40625 L 563.5 686.40625 L 564.5 680.6875 L 565.90625 675.90625 L 567.5 670.1875 L 569.3125 663.3125 L 566.5 660.90625 L 567.6875 658.5 L 572.8125 658.09375 L 577.59375 651.1875 L 581.8125 650.40625 L 589.09375 646 L 591.3125 644.1875 L 599.1875 640 L 606.3125 637 L 613 633 L 616.40625 630.40625 L 623.5 623.6875 L 625.09375 622.6875 L 627.6875 620.90625 L 630.90625 618.5 L 632.09375 616.09375 L 644.40625 610.40625 L 651.5 608.40625 L 652.3125 608.1875 L 658.1875 606.3125 L 668.3125 605.90625 L 681.1875 610.3125 L 689.3125 611.6875 L 693.90625 609.90625 L 697.90625 611.3125 L 701.90625 612.5 L 702.90625 609.90625 L 698.90625 608.5 L 695.6875 609.09375 L 692.3125 607.09375 C 692.3125 607.09375 692.5125 605.5125 693.3125 605.3125 C 694.1125 605.1125 697.09375 604.09375 697.09375 604.09375 L 699.3125 605.90625 L 701.5 604.6875 L 705.5 605.5 L 707.3125 608.5 L 707.6875 611.3125 L 713.40625 611.6875 L 715.59375 613.90625 L 714.59375 615.90625 L 713 616.90625 L 715 618.90625 L 725.34375 623.25 L 725.34375 132.0625 z "
     style="fill:#ffffff;stroke:#000000;stroke-width:0.50000000000000000;stroke-miterlimit:10" /><path
     transform="translate(-3.4284419e-5,0)"
     id="path3267"
     d="M 725.34375 132.0625 L 725.34375 623.25 L 725.5 623.3125 L 729.90625 621.6875 L 731.09375 618.6875 L 734.3125 617.90625 L 736.5 616.09375 L 738.09375 617.3125 L 739.09375 620.90625 L 736.3125 621.90625 L 737.09375 622.6875 L 741.3125 621.09375 L 744.09375 616.90625 L 745.09375 616.3125 L 742.5 615.90625 L 743.5 613.90625 L 743.3125 612.09375 L 745.90625 611.5 L 747.3125 609.90625 L 748.09375 610.90625 C 748.09375 610.90625 747.90625 614.6875 748.90625 614.6875 C 749.90625 614.6875 754.1875 615.5 754.1875 615.5 L 759.3125 617.90625 L 760.5 619.6875 L 764.09375 619.6875 L 765.5 620.90625 L 768.3125 617.09375 L 768.3125 615.3125 L 766.6875 615.3125 L 762.5 611.90625 L 755.1875 610.90625 L 751.1875 608.09375 L 752.59375 604.6875 L 755.40625 605.09375 L 755.59375 604.3125 L 753.40625 603.09375 L 753.40625 602.5 L 757.40625 602.5 L 759.59375 598.6875 L 758 596.3125 L 757.59375 592.90625 L 755.8125 593.09375 L 753.40625 595.6875 L 752.59375 598.90625 L 748.8125 598.09375 L 747.59375 595.90625 L 749.8125 593.5 L 752.3125 591.3125 L 753.1875 590.6875 L 754.59375 589.6875 L 757.8125 584.40625 L 760 585.40625 L 768.5 583 L 771.09375 583.40625 L 772.90625 584.40625 L 779.40625 584.40625 L 779.6875 582.8125 L 781 582.59375 L 784.40625 582.59375 L 785.1875 582.8125 L 786.8125 579.40625 L 788.59375 573.90625 L 791.40625 574.6875 L 795.1875 582.1875 L 795.1875 583.40625 L 791.8125 585.8125 L 795.1875 586.1875 L 802.09375 583 L 802.90625 583.09375 L 807.1875 582.3125 L 814.6875 579.6875 L 822.1875 579.09375 L 827.6875 578.3125 L 837.1875 580.5 L 847.3125 585.40625 L 849.3125 587.1875 L 852.90625 588.59375 L 854.90625 591 L 855.3125 594.40625 L 859.3125 592.8125 L 864.09375 592.8125 L 868.5 590.40625 L 873.09375 586 L 876.90625 586.1875 L 877.5 584.8125 L 876.5 583.59375 L 876.6875 581.1875 L 881.8125 580.1875 L 885 580.1875 L 888.59375 582 L 893.90625 583.8125 L 896.90625 588.40625 L 900.3125 589.59375 L 901.6875 593.8125 L 905.90625 595.8125 L 907.90625 599 L 910.3125 599.8125 L 916.8125 601.40625 L 918.40625 605.1875 L 922.1875 609.8125 L 922.1875 621.6875 L 920.40625 627.59375 L 920.8125 631 L 922.40625 637.09375 L 924.59375 642.1875 L 925.59375 641.59375 L 927.40625 635.90625 L 924.1875 634.6875 L 923.8125 633.90625 L 925.8125 633.09375 L 931.5 634.3125 L 931.6875 636.3125 L 927.6875 643.1875 L 925.09375 646.1875 L 929.5 650.8125 L 932.6875 654.59375 L 936.3125 661.3125 L 939.90625 666.09375 L 942.5 672.40625 L 944.6875 672.8125 L 946.6875 670.1875 L 948.90625 671.59375 L 952.09375 676.6875 L 952.90625 681.09375 L 956.6875 686.59375 L 957.6875 685 L 962.5 685.40625 L 966.90625 688.1875 L 971.09375 694.6875 L 972.09375 698.90625 L 972.5 702.5 L 973.90625 703.6875 L 975.5 704.3125 L 978.5 703.09375 L 980.3125 701.09375 L 985.09375 700.90625 L 988.90625 699.09375 L 992.3125 695.09375 L 991.6875 692.6875 L 991.3125 689.6875 L 992.09375 687.3125 L 991.6875 684.90625 L 994.6875 683.3125 L 995.09375 679.09375 L 994.3125 676.90625 L 993.6875 661.90625 L 992.09375 652.40625 L 986.40625 642.09375 L 982 634.8125 L 978.8125 628.09375 L 975.1875 624.5 L 971.59375 615.1875 L 972.59375 613.59375 L 974 612 L 972 608.40625 L 966.90625 603.8125 L 960.8125 596.90625 L 956.1875 589 L 949.5 577.3125 L 944.8125 565.09375 L 942 556 L 942 554.90625 L 941 547 L 943.8125 534.5 L 945.59375 529.1875 L 945 526 L 949.1875 518.1875 L 948.59375 516.5 L 949.3125 515.3125 L 951.90625 513.6875 L 958.1875 506.8125 L 957 502.8125 L 960.59375 502.59375 L 965 498.40625 L 967 497.40625 L 969.8125 493.1875 L 973.1875 489.8125 L 975.8125 485.40625 L 978.8125 484.59375 L 980.1875 481.1875 L 982.1875 480.1875 L 982.8125 472.3125 L 986 464.59375 L 992.8125 457.8125 L 993.09375 456.8125 L 999.90625 455.09375 L 1005.8125 454.5 L 1006.4062 451.5 L 1008.8125 443.40625 L 1013 437.5 L 1021.0938 430.8125 L 1027.5938 427.8125 L 1031 427 L 1032.4062 427.59375 L 1034 427.59375 L 1037.8125 421.5 L 1040.1875 417.09375 L 1038.5938 417.6875 L 1035.8125 420.5 L 1035 418.5 L 1029.6875 418.5 L 1032.0938 410.59375 L 1031.0938 409 L 1028.6875 409 L 1028.6875 407.8125 L 1028.3125 406.1875 L 1030.3125 407.8125 L 1032.0938 408 L 1035.0938 408.40625 L 1039.6875 406.40625 L 1041.3125 402.8125 L 1042.0938 400.1875 L 1045.3125 398.59375 L 1045.6875 393.3125 L 1044.6875 392.5 L 1047.6875 392.3125 L 1046.9062 389.5 L 1043.9062 386.5 L 1039.5 378.40625 L 1037.4062 372.5 L 1036.1875 371.3125 L 1031.6875 363.8125 L 1024.4062 365.90625 L 1022.4062 364 L 1025.5938 362.3125 L 1025 359.09375 L 1022.8125 356.90625 L 1022.5938 355.09375 L 1019.6875 353.1875 L 1019.5938 351.1875 L 1023 351.3125 L 1023.3125 349.59375 L 1021.8125 348.59375 L 1022.4062 346.1875 L 1020.6875 344.8125 L 1021.1875 338.90625 L 1020.0938 337.40625 L 1016.0938 336.90625 L 1013.4062 334.3125 L 1007.3125 333.09375 L 1006.5 332.59375 L 1006.8125 331.8125 L 1012.1875 331.6875 L 1016 332.90625 L 1018.5938 333.3125 L 1019.8125 330.6875 L 1018 328.09375 L 1018 325.90625 L 1015 323.3125 L 1012.4062 316.40625 L 1014 309.6875 L 1013.8125 307.09375 L 1012.1875 305.5 C 1012.1875 305.5 1014 303.4875 1014 302.6875 C 1014 301.8875 1014.5937 300.09375 1014.5938 300.09375 L 1017 298.5 L 1019.4062 296.5 L 1020 297.6875 L 1018.1875 299.6875 L 1016.5938 304.3125 L 1017 305.6875 L 1019.1875 306.09375 L 1019.8125 313 L 1017.1875 314.1875 L 1017.5938 318.59375 L 1018.1875 318.40625 L 1019.5938 316 L 1021.5938 318.1875 L 1019.5938 319.8125 L 1019.1875 324 L 1022.4062 328.1875 L 1027.1875 328.8125 L 1029.1875 327.8125 L 1033.1875 333 L 1034.9062 333.6875 L 1035.8125 334.09375 L 1036 336.5 L 1035 340.40625 L 1033 345.59375 L 1032.4062 352.40625 L 1034.1875 358.1875 L 1036.9062 355.8125 L 1039.1875 349.59375 L 1038.5938 345.40625 L 1039.0938 339.6875 L 1042.8125 335 L 1043.8125 331 L 1043.1875 330.3125 L 1045.6875 325.3125 L 1046 319.1875 L 1045.6875 318.3125 L 1042.9062 309.09375 L 1041.6875 309.6875 L 1037.3125 306.6875 L 1035.0938 300.8125 L 1032.6875 296.40625 L 1029.9062 295.1875 L 1027.3125 290.8125 L 1027.9062 288.1875 L 1028.5 288.8125 L 1029.9062 291.59375 L 1033.9062 295.1875 L 1040 298 L 1045.0938 298.8125 L 1045.3125 300.59375 L 1044.3125 301.8125 L 1044.6875 305.1875 L 1045.6875 305.1875 L 1048.3125 302.1875 L 1049.3125 296.09375 L 1052.6875 291 L 1056.5 282.90625 L 1057.9062 276 L 1057.0938 274.59375 L 1057 263 L 1055 258.8125 L 1053.5938 259.8125 L 1050.1875 260.1875 L 1049.5938 259.59375 L 1051 258.40625 L 1053.5938 256 L 1053.6875 254.59375 L 1054.4062 254.5 L 1055.9062 255.1875 L 1061 253.8125 L 1068.3125 251.40625 L 1071.5 250.1875 L 1080.4062 243.5 L 1085.1875 239.90625 L 1089.4062 235.5 L 1084.0938 233.5 L 1082.5 235.3125 L 1078.9062 238.6875 L 1069 243.59375 L 1066.1875 243.40625 L 1064.1875 242.59375 L 1062.8125 243.40625 L 1060 246.59375 L 1058.1875 248.1875 L 1056.5938 248.59375 L 1056.1875 247 L 1058.5938 244.8125 L 1057.5938 242.6875 L 1058.9062 243 L 1065.0938 238.6875 L 1069.5 234.6875 L 1071.9062 232.09375 L 1072.9062 232.90625 L 1076.3125 231.09375 L 1082.8125 229.6875 L 1091.5938 225.3125 L 1092.6875 225 L 1096.3125 223.8125 L 1099.3125 221.40625 L 1100.6875 219.1875 L 1102.3125 219.40625 L 1105.9062 217.5 L 1106.5 217 L 1109.0938 215.6875 L 1108.5 212.90625 L 1109.5 211.09375 L 1113.0938 209.3125 L 1114.0938 213.09375 L 1113.5 215.3125 L 1110.5 217.09375 L 1110.5 218.3125 L 1112.9062 216.5 L 1117.6875 210.8125 L 1122.5 208.40625 L 1127.8125 206.59375 L 1127.4062 203.59375 L 1126.1875 200 L 1123.8125 197 L 1121.5938 196 L 1119 196.1875 L 1118.4062 196.8125 L 1119.5938 198.40625 L 1121.4062 197.40625 L 1124 199.40625 L 1125 202.8125 L 1122.8125 205 L 1120 206.1875 L 1115.5938 205.59375 L 1110.8125 198.09375 L 1108 194.90625 L 1105.8125 194.90625 L 1104.4062 195.90625 L 1102 192.6875 L 1102.4062 190.90625 L 1105.4062 184.40625 L 1101.8125 178.90625 L 1101.0938 178.3125 L 1102.1875 177 L 1103.5938 172.90625 L 1104.0938 171.5 L 1105.5 163.6875 L 1105.6875 158.1875 L 1107.5 156.59375 L 1106.3125 152.59375 L 1110.0938 148.1875 L 1112.0938 150 L 1113.6875 149.40625 L 1120.4062 145.59375 L 1120.8125 142 L 1124.4062 141.40625 L 1126.4062 138.1875 L 1126.1875 136.1875 L 1125.8125 132.40625 L 1126.8125 130.8125 L 1126.4062 129.40625 L 1124.8125 127.59375 L 1127.4062 126 L 1129.5938 130 L 1131.4062 129.59375 L 1131.8125 131.1875 L 1131.8125 133.1875 L 1134.1875 133.40625 L 1134.8125 130 L 1135.4062 129.1875 L 1133.4062 127.40625 L 1134.5938 125.59375 L 1137.5938 123.8125 L 1138.8125 122 L 1141 121.8125 C 1141 121.8125 1141.3875 124.40625 1142.1875 124.40625 L 1143.8125 124.40625 L 1149.9062 117.5 L 1154.0938 113.6875 L 1156.5 112.90625 L 1159.0938 107 L 1159.0938 104.59375 L 1156.3125 100 L 1153.9062 97.40625 L 1150.5 97.59375 L 1151.0938 99 L 1150.9062 99.59375 L 1149.9062 99.59375 L 1146.3125 96.8125 L 1146.0938 90.6875 L 1145.0938 88.3125 L 1137.5938 88.3125 L 1126.3125 50.90625 L 1123.9062 49.6875 L 1116.4062 46.6875 L 1114.5938 46.5 L 1112.4062 48.6875 L 1107.3125 52.3125 L 1107.3125 53.5 L 1106.3125 54.5 L 1102.9062 53.6875 L 1101.3125 50.90625 L 1101.3125 49.5 L 1099.6875 49.3125 L 1098.0938 49.3125 L 1095.5 54.59375 L 1091.9062 65.6875 L 1089.6875 71.8125 L 1089.9062 77.90625 L 1090.0938 79.6875 L 1089.0938 83.09375 L 1088.0938 84.3125 L 1088.0938 91 L 1090.5 94 L 1088.6875 99.09375 L 1085.5 105 L 1084.5 111.90625 L 1084.5 115.09375 L 1082.5938 114.59375 L 1080.8125 114.6875 L 1079.6875 115.3125 L 1078.5938 115.3125 L 1077.8125 117.3125 L 1077 116.6875 L 1075.8125 115.5 L 1074 117.90625 L 1073.9062 124.1875 L 1072.6875 124.59375 L 1039.9062 133 L 1039.0938 133.5 L 1029.5938 136.09375 L 1023.9062 137.90625 L 1019.9062 137.6875 L 1013 139.3125 L 1009.0938 140.90625 L 1006.0938 143.1875 L 1003.5 146.1875 L 1000.0938 150.8125 L 996.5 156.5 L 994.6875 160.09375 L 993.90625 161.09375 L 986.59375 168 L 986.8125 171.1875 L 987.8125 172.59375 L 990 173.59375 L 992.1875 173.59375 L 992.1875 175.40625 L 990.8125 178 L 991.1875 179.8125 L 993 182.40625 L 992.8125 185.1875 L 990.40625 186.59375 L 987.8125 186.59375 L 985.8125 189 L 983.59375 193 L 981 195.1875 L 974.5 195.8125 L 971.3125 197.1875 L 968.6875 198.8125 L 966.6875 198.59375 L 964.3125 197 L 956.40625 197.1875 L 952.40625 197.8125 L 947.3125 199.40625 L 941.8125 201.1875 L 938.1875 203.40625 L 940.59375 211.09375 L 942.8125 211.3125 L 944.40625 215.09375 L 944.59375 216.3125 L 943.1875 217.5 L 940.59375 220.90625 L 940 222.90625 L 937.59375 225.09375 L 935.40625 226.5 L 934.1875 228.5 L 932.59375 229.90625 L 930.8125 231.3125 L 929.5 231.90625 L 922.59375 238.90625 L 921 239.5 L 915.6875 243.3125 L 914.40625 243.1875 L 906.8125 248.3125 L 901.90625 251.09375 L 897.6875 255.6875 L 892.59375 260.59375 L 888.59375 261.59375 L 885 262.1875 L 878 266 L 875.40625 266.1875 L 871.1875 262.40625 L 864.6875 263.1875 L 861.5 261.40625 L 858.5 259.6875 L 857.09375 259.3125 L 857.3125 258.59375 L 857.5 256.8125 L 860.09375 252.1875 L 862.59375 250 L 862.3125 243.6875 L 864.3125 241.6875 L 865.6875 241.3125 L 866 236.90625 L 867.90625 233.09375 L 869.1875 233.90625 L 869.40625 234.6875 L 870.40625 234.90625 L 872.8125 233.6875 L 872.40625 221.8125 L 868.40625 211.5 L 865.59375 200.1875 L 862.59375 196.1875 L 859.40625 194 L 857.40625 195.40625 L 852.59375 197.59375 L 850.1875 203.90625 L 846.8125 208.5 L 845 209 L 843.1875 208.1875 C 843.1875 208.1875 839.9875 206.39375 840.1875 205.59375 C 840.3875 204.79375 840.8125 199.3125 840.8125 199.3125 L 845 197.6875 L 846 193.5 L 846.8125 190.3125 L 849.8125 188.3125 L 849.40625 175.8125 L 847.40625 173 L 845.8125 172 L 844.8125 169.40625 L 845.8125 168.40625 L 847.8125 168.8125 L 848 166.8125 L 845 164 L 843.40625 160.8125 L 840.1875 160.8125 L 834.5 159 L 827.59375 154.8125 L 824.1875 154.8125 L 823.40625 155.59375 L 822.1875 155 L 818.40625 152.1875 L 814.8125 154.40625 L 811.1875 157.1875 L 811.59375 161.59375 L 812.8125 162 L 815.40625 162.59375 L 816 163.59375 L 812.8125 164.59375 L 809.59375 165 L 807.8125 167.1875 L 807.40625 169.8125 L 807.8125 171.8125 L 808.1875 178.6875 L 803.8125 181.3125 L 803 181.09375 L 803 175.8125 L 804.59375 172.8125 L 805.40625 169.8125 L 804.40625 168.8125 L 802 169.8125 L 800.8125 175.09375 L 797.40625 176.5 L 795.1875 178.90625 L 795 180.09375 L 795.8125 181.09375 L 795 184.3125 L 792.1875 184.90625 L 792.1875 186.3125 L 793.1875 189.3125 L 791.8125 197 L 789.8125 202.09375 L 790.59375 208 L 791.1875 209.40625 L 790.1875 212.40625 L 789.8125 213.40625 L 789.40625 216.8125 L 793.8125 224.3125 L 797.40625 232.40625 L 799.1875 238.5 L 798.1875 244.40625 L 797 251.90625 L 794 258.40625 L 793.59375 261.8125 L 789.5 265.6875 L 788.1875 266.6875 L 784.6875 268.6875 L 782.09375 271.09375 L 780.6875 271.5 L 778.90625 270.3125 L 775.09375 269.1875 L 774 269.40625 L 773.6875 268.1875 L 772.6875 265 L 771.09375 260.40625 L 769.09375 258.1875 L 767.3125 255 L 767 248.09375 L 766.59375 246.8125 L 767.09375 243.09375 L 765.09375 237.40625 L 764.3125 229.6875 L 762.90625 226.6875 L 764.09375 222.90625 L 765.09375 219.3125 L 766.90625 216.09375 L 766.09375 211.90625 L 765.3125 207.5 L 765.90625 205.3125 L 768.3125 202.3125 L 768.5 198.90625 L 767.5 197.3125 L 768.3125 194.09375 L 768.90625 190.09375 L 772.3125 183 L 775.90625 174.5 L 776.09375 171.6875 L 775.6875 170.5 L 774.6875 171.09375 L 769.40625 179 L 766 184.09375 L 763.59375 186.3125 L 762.59375 189.09375 L 760.8125 190.09375 L 759.40625 192.5 L 757.59375 192.09375 L 757.40625 189.90625 L 759 186.90625 L 761.59375 181 L 763.8125 179 L 765.1875 176.09375 L 765.90625 175 L 769.90625 166.1875 L 771.09375 161.09375 L 773.5 155.59375 L 774.5 155.40625 L 775.90625 157.40625 L 776.6875 157.40625 L 782.40625 154.40625 L 784.1875 156.40625 L 784.8125 156.59375 L 786.40625 155.1875 L 787.8125 151.40625 L 790.8125 150.40625 L 799.5 149.59375 L 801.90625 146.40625 L 808.40625 146.1875 L 815.6875 147.8125 L 817.90625 147.8125 L 821.90625 146 L 824.6875 146.1875 L 827.3125 145.40625 L 831.90625 146 L 832.90625 146.40625 L 834.5 146 L 832.90625 144.8125 L 831.3125 144 L 827.3125 140.1875 L 827.3125 131.5 L 825.5 130.90625 L 824.09375 132.3125 L 816.40625 134.3125 L 814 134.90625 L 810.40625 133.90625 L 809.8125 133.5 L 809.8125 126.40625 L 808 126.1875 L 804.8125 127.8125 L 799.09375 130.1875 L 790.8125 130.59375 L 786.59375 132 L 781.5 136.40625 L 779.5 137.59375 L 778.09375 137.59375 L 776.5 138.59375 L 774.5 138 L 772.5 136.40625 L 770.6875 137.59375 L 765.90625 137.8125 L 762.5 134.40625 L 760.6875 130.59375 L 758.90625 129.1875 L 754.90625 128 L 752.09375 128 L 750.5 126.40625 L 746.09375 130 L 744.90625 131.40625 L 743.90625 130.8125 L 744.3125 127.59375 L 747.3125 123.59375 L 747.90625 120.59375 L 750.6875 119.59375 L 752.5 115.8125 L 757.09375 114.59375 L 757.5 113.40625 L 756.09375 112 L 750.1875 112.59375 L 744.6875 115.59375 L 741.90625 118.40625 L 740.3125 120.59375 L 738.09375 121.59375 L 735.6875 125.1875 L 735.5 126.8125 L 730 129.40625 L 727 131.8125 L 725.34375 132.0625 z "
     style="fill:#d50303;stroke:#000000;stroke-width:0.50000000000000000;stroke-miterlimit:10;fill-opacity:1" /><path
     transform="translate(-3.4284419e-5,0)"
     id="path4294"
     d="M 358.09375 539.9375 L 358.09375 59.90625 L 340.8125 57.5 L 300.40625 50.8125 L 277.40625 46.59375 L 236.5 37.90625 L 235.09375 37.6875 L 218.90625 34.5 L 218 34 L 199 29.8125 L 170.3125 22.6875 L 145.1875 15.59375 L 134.5 13.1875 L 122.40625 9.8125 L 117 8 L 115.59375 9 L 115.1875 10 L 118.1875 16.09375 L 119.59375 19.3125 L 117.40625 23.6875 L 117.40625 26.5 L 118.1875 28.3125 L 117.1875 30.5 L 117.8125 34.5 L 119 36.09375 L 118.8125 37.6875 L 117 37.90625 L 116.1875 35.5 L 114.8125 32.5 L 112.59375 30.6875 L 113 28.09375 L 115.8125 27.5 L 115.40625 25.3125 L 115 23.90625 L 112.40625 25.5 L 110.8125 26.90625 L 110.8125 29.90625 L 108 30.09375 L 103.8125 28.90625 L 100.1875 27.09375 L 96.40625 26.3125 L 90.6875 23.6875 L 86.6875 21.3125 L 83 18.09375 L 80 14.5 L 77.40625 13.90625 L 74.59375 25.59375 L 76.8125 29.59375 L 76.8125 39.5 L 76 43.09375 L 77.8125 52 L 81.1875 55.40625 L 75.6875 56.1875 L 75.5 60.8125 L 78.6875 62.1875 L 76.6875 67.3125 L 73.3125 67.6875 L 72.90625 71.3125 L 75.6875 74.90625 L 73.09375 78.09375 L 70.3125 86.1875 L 66.3125 98.6875 L 62.3125 106.8125 L 56 124.40625 L 47.90625 141.40625 L 37.8125 157.1875 L 35.40625 160.8125 L 34.40625 171.5 L 32.8125 179 L 36.1875 183.40625 L 35.59375 184.59375 L 33.59375 190.5 L 33.40625 199.8125 L 26.90625 214.59375 L 23.09375 217.8125 L 22.6875 219.1875 L 20.5 220.1875 L 18.6875 225.5 L 17.6875 229.5 L 21.09375 234.8125 L 23.09375 240.09375 L 24.5 244.5 L 24.09375 252.59375 L 21.90625 256.40625 L 21.09375 263.6875 L 19.90625 268.3125 L 22.09375 273.1875 L 25.5 278.90625 L 28.3125 285 L 29.90625 290.09375 L 29.5 294.09375 L 29.09375 294.6875 L 29.09375 297.3125 L 36.1875 305.1875 L 35.59375 308.1875 L 34.8125 311 L 34 313.40625 L 34.1875 323.6875 L 36.8125 328.3125 L 39.1875 331.5 L 42.59375 332.09375 L 43.8125 335.5 L 42.40625 339.90625 L 39.8125 341.90625 L 38.40625 341.90625 L 37.40625 346.8125 L 38 350.40625 L 42 355.90625 L 44 362.59375 L 45.8125 368.5 L 47.40625 372.3125 L 51.59375 379.59375 L 53.40625 382.8125 L 54 386.40625 L 56 387.59375 L 56 390.59375 L 55 393 L 52.8125 401.90625 L 52.1875 404.3125 L 55.1875 407.6875 L 60.5 408.3125 L 66.1875 410.5 L 71.09375 413.09375 L 74.6875 413.09375 L 78.3125 416.90625 L 81.5 423 L 82.90625 425.8125 L 87.8125 428.40625 L 93.90625 429.40625 L 95.6875 432 L 96.5 436 L 94.6875 436.8125 L 95.09375 438 L 99.09375 439 L 102.5 439.1875 L 106.09375 445.09375 L 111 450.40625 L 112 453.1875 L 115.1875 458.5 L 115.59375 462.5 L 115.59375 474.1875 L 116.1875 476.40625 L 128.6875 478.1875 L 153.40625 481.59375 L 170.8125 482.8125 L 172.09375 483.6875 L 168.8125 486.40625 L 168.40625 488.1875 L 169 489.40625 L 192.59375 502.6875 L 207.8125 512.1875 L 226.1875 522.90625 L 247.1875 535.40625 L 262.59375 538.40625 L 294 541.8125 L 296 542.8125 L 315.3125 545.3125 L 316.90625 532.8125 L 337.6875 536 L 353.3125 538 L 354.5 538 L 356.90625 538.59375 L 358.09375 539.9375 z "
     style="fill:#15990b;stroke:#000000;stroke-width:0.50000000000000000;stroke-miterlimit:10;fill-opacity:1" /></g>
<metadata
   id="metadata35"><rdf:RDF><cc:Work><dc:format>image/svg+xml</dc:format><dc:type
         rdf:resource="http://purl.org/dc/dcmitype/StillImage" /><cc:license
         rdf:resource="http://creativecommons.org/licenses/publicdomain/" /><dc:publisher><cc:Agent
           rdf:about="http://openclipart.org/"><dc:title>Openclipart</dc:title></cc:Agent></dc:publisher></cc:Work><cc:License
       rdf:about="http://creativecommons.org/licenses/publicdomain/"><cc:permits
         rdf:resource="http://creativecommons.org/ns#Reproduction" /><cc:permits
         rdf:resource="http://creativecommons.org/ns#Distribution" /><cc:permits
         rdf:resource="http://creativecommons.org/ns#DerivativeWorks" /></cc:License></rdf:RDF></metadata></svg>